<svg xmlns="http://www.w3.org/2000/svg" class="MuiSvgIcon-root sc-aXZVg jkVGsB" focusable="false" viewBox="0 0 24 24" aria-hidden="true" shape-rendering="geometricPrecision"><g style="stroke-width: 0.01; fill: currentcolor;"><path d="M12,3a1.55,1.55,0,0,1,1,.5A2.47,2.47,0,0,1,13.5,5V9l6,4.5V15L13,12.5V18l2.5,2v1L12,20,8.5,21V20L11,18V12.5L4.5,15V13.5l6-4.5V5A2.47,2.47,0,0,1,11,3.5,1.55,1.55,0,0,1,12,3m0-1a2.55,2.55,0,0,0-1.71.79A3.37,3.37,0,0,0,9.5,5V8.5L3.9,12.7a1,1,0,0,0-.4.8V15a1,1,0,0,0,1,1,.92.92,0,0,0,.36-.07L10,14v3.56l-2.12,1.7A1,1,0,0,0,7.5,20v1a1,1,0,0,0,1,1,.84.84,0,0,0,.27,0L12,21l3.23.92a.84.84,0,0,0,.27,0,1,1,0,0,0,1-1V20a1,1,0,0,0-.38-.78L14,17.52V14l5.14,2a.92.92,0,0,0,.36.07,1,1,0,0,0,1-1V13.5a1,1,0,0,0-.4-.8L14.5,8.5V5a3.37,3.37,0,0,0-.79-2.21A2.55,2.55,0,0,0,12,2Z"/></g></svg>