<svg xmlns="http://www.w3.org/2000/svg" class="MuiSvgIcon-root sc-aXZVg jkVGsB" focusable="false" viewBox="0 0 24 24" aria-hidden="true" shape-rendering="geometricPrecision"><g style="stroke-width: 0.01; fill: currentcolor;"><path d="M13.36,15.84v4.07H10.64V15.84h2.72m0-1H10.64a1,1,0,0,0-1,1v4.07a1,1,0,0,0,1,1h2.72a1,1,0,0,0,1-1V15.84a1,1,0,0,0-1-1Z"/><path d="M12,4.09l8.53,7.23h-1.3V19.9H4.77V11.32H3.47L12,4.09m0-1a1,1,0,0,0-.65.24L2.83,10.56a1,1,0,0,0,.64,1.76h.3V19.9a1,1,0,0,0,1,1H19.23a1,1,0,0,0,1-1V12.32h.3a1,1,0,0,0,.64-1.76L12.65,3.33A1,1,0,0,0,12,3.09Z"/></g></svg>